<?xml version="1.0" standalone="no"?>
<!DOCTYPE svg PUBLIC "-//W3C//DTD SVG 20010904//EN"
 "http://www.w3.org/TR/2001/REC-SVG-20010904/DTD/svg10.dtd">
<svg version="1.0" xmlns="http://www.w3.org/2000/svg"
 width="700.000000pt" height="700.000000pt" viewBox="0 0 700.000000 700.000000"
 preserveAspectRatio="xMidYMid meet">
<metadata>
Created by potrace 1.14, written by Peter Selinger 2001-2017
</metadata>
<g transform="translate(0.000000,700.000000) scale(0.100000,-0.100000)"
fill="#000000" stroke="none">
<path d="M2260 6720 c-323 -69 -589 -278 -731 -575 -122 -254 -140 -539 -50
-796 l19 -57 -296 -5 c-338 -5 -372 -11 -517 -82 -206 -100 -348 -275 -405
-499 -27 -107 -27 -264 0 -372 68 -270 285 -486 554 -554 78 -20 118 -20 2666
-20 2553 0 2588 0 2666 20 473 120 712 644 495 1085 -95 192 -276 339 -490
397 -66 18 -113 21 -373 25 l-296 5 14 42 c51 142 72 321 55 466 -17 137 -44
230 -106 355 -144 294 -409 499 -730 566 -175 36 -414 23 -580 -33 -261 -88
-502 -294 -616 -529 -19 -38 -36 -69 -39 -69 -3 0 -20 31 -39 69 -18 38 -62
108 -97 154 -160 213 -388 356 -656 411 -108 22 -336 20 -448 -4z m345 -645
c115 -30 207 -101 267 -205 14 -25 58 -153 97 -285 40 -132 76 -253 81 -268
l9 -28 -342 3 -342 3 -65 31 c-177 85 -268 285 -215 470 62 216 284 337 510
279z m1997 4 c197 -42 326 -212 316 -416 -4 -65 -10 -93 -36 -145 -41 -84
-111 -154 -192 -192 l-65 -31 -342 -3 -342 -3 9 28 c5 15 41 136 81 268 39
132 80 256 90 276 28 56 112 142 167 172 96 52 207 69 314 46z"/>
<path d="M1630 3530 c-225 -17 -407 -104 -562 -268 -119 -127 -187 -268 -214
-446 -22 -143 -14 -994 10 -1166 29 -197 67 -324 150 -488 243 -482 688 -804
1221 -883 57 -9 398 -14 1170 -16 1139 -5 1286 -1 1476 37 459 93 868 407
1093 840 92 178 132 303 162 510 24 172 32 1023 10 1166 -27 178 -95 319 -214
446 -160 169 -328 247 -577 268 -139 11 -3575 11 -3725 0z"/>
</g>
</svg>
