<svg width="16" height="16" viewBox="0 0 16 16" fill="none" xmlns="http://www.w3.org/2000/svg">
<g clip-path="url(#clip0_1_2186)">
<path fill-rule="evenodd" clip-rule="evenodd" d="M11.25 3.00016C11.25 2.4939 10.8396 2.0835 10.3333 2.0835H10.2798C9.8514 2.0835 9.4737 2.36452 9.35059 2.77488L9.008 3.91683H10.3333C10.8396 3.91683 11.25 3.50642 11.25 3.00016ZM12.5701 3.91683C12.686 3.63415 12.75 3.32462 12.75 3.00016C12.75 1.66547 11.668 0.583496 10.3333 0.583496H10.2798C9.27513 0.583496 8.37999 1.19047 7.99998 2.10268C7.61997 1.19047 6.72483 0.583496 5.72013 0.583496H5.66665C4.33196 0.583496 3.24998 1.66547 3.24998 3.00016C3.24998 3.32462 3.31392 3.63415 3.42989 3.91683H2.33331C1.36681 3.91683 0.583313 4.70033 0.583313 5.66683C0.583313 6.63333 1.36681 7.41683 2.33331 7.41683H13.6666C14.6331 7.41683 15.4166 6.63333 15.4166 5.66683C15.4166 4.70033 14.6331 3.91683 13.6666 3.91683H12.5701ZM5.66665 3.91683H6.99196L6.64937 2.77488C6.52626 2.36452 6.14856 2.0835 5.72013 2.0835H5.66665C5.16039 2.0835 4.74998 2.4939 4.74998 3.00016C4.74998 3.50642 5.16039 3.91683 5.66665 3.91683ZM4.28716 7.91671L4.38093 7.91683H11.619L11.7128 7.91671C12.0949 7.91597 12.4602 7.91527 12.7774 8.02626C13.3375 8.22226 13.7779 8.66265 13.9739 9.22279C14.0849 9.53997 14.0842 9.90523 14.0834 10.2873L14.0833 10.3811L14.0834 10.5301V10.5301C14.0838 11.5824 14.0841 12.3017 13.8729 12.9054C13.496 13.9826 12.649 14.8295 11.5719 15.2064C10.9682 15.4176 10.2489 15.4173 9.19656 15.4169L9.0476 15.4168H6.95236L6.8034 15.4169C5.75104 15.4173 5.03175 15.4176 4.4281 15.2064C3.35092 14.8295 2.504 13.9826 2.12708 12.9054C1.91586 12.3017 1.91616 11.5824 1.9166 10.5301L1.91665 10.3811L1.91653 10.2873C1.91579 9.90523 1.91509 9.53997 2.02607 9.22279C2.22207 8.66265 2.66247 8.22226 3.2226 8.02626C3.53979 7.91527 3.90505 7.91597 4.28716 7.91671Z" fill="white"/>
</g>
<defs>
<clipPath id="clip0_1_2186">
<rect width="16" height="16" fill="white"/>
</clipPath>
</defs>
</svg>
