<svg width="100" height="100" viewBox="0 0 100 100" fill="none" xmlns="http://www.w3.org/2000/svg">
<rect width="100" height="100" rx="50" fill="#FF68C3" fill-opacity="0.16"/>
<path fill-rule="evenodd" clip-rule="evenodd" d="M33.9999 28L33.8138 27.9998C33.0763 27.9986 32.3515 27.9974 31.7058 28.1704C29.9804 28.6328 28.6326 29.9805 28.1703 31.706C27.9973 32.3516 27.9985 33.0765 27.9997 33.8139L27.9999 34L27.9999 34.0005L27.9997 34.1862C27.9995 34.3098 27.9993 34.4331 27.9999 34.5558V37.999L27.9999 38V57.2L27.9999 57.2856C27.9999 59.4532 27.9999 61.2015 28.1156 62.6172C28.2347 64.0749 28.4863 65.3553 29.0899 66.5399C30.0486 68.4215 31.5784 69.9513 33.46 70.91C34.6446 71.5136 35.925 71.7652 37.3827 71.8843C38.7984 72 40.5467 72 42.7143 72H42.7145H42.7999H57.1999H57.2854H57.2856C59.4531 72 61.2014 72 62.6172 71.8843C64.0749 71.7652 65.3552 71.5136 66.5398 70.91C68.4214 69.9513 69.9513 68.4215 70.91 66.5399C71.5136 65.3553 71.7652 64.0749 71.8843 62.6172C71.9006 62.4181 71.9145 62.2125 71.9265 62H67.9999H67.9359C67.0586 62 66.3017 62 65.6752 61.9573C65.0155 61.9123 64.3557 61.8133 63.7038 61.5433C62.2337 60.9343 61.0656 59.7663 60.4566 58.2961C60.1866 57.6442 60.0876 56.9844 60.0426 56.3247C59.9999 55.6982 59.9999 54.9413 59.9999 54.064V54V53.936C59.9999 53.0587 59.9999 52.3017 60.0426 51.6752C60.0876 51.0156 60.1866 50.3557 60.4566 49.7039C61.0656 48.2337 62.2337 47.0657 63.7038 46.4567C64.3557 46.1867 65.0155 46.0877 65.6752 46.0427C66.3017 45.9999 67.0586 46 67.9359 46H67.936L67.9999 46H71.9265C71.9145 45.7875 71.9006 45.5818 71.8843 45.3827C71.7652 43.925 71.5136 42.6447 70.91 41.4601C69.9513 39.5785 68.4214 38.0487 66.5398 37.0899C65.3552 36.4863 64.0749 36.2347 62.6172 36.1156C62.1272 36.0756 61.5974 36.0494 61.0241 36.0323L57.5199 31.36L57.3993 31.199C56.816 30.4195 56.3022 29.7328 55.6268 29.2203C55.0341 28.7706 54.363 28.435 53.6476 28.2307C52.8323 27.9979 51.9747 27.9988 51.0011 27.9999L50.7999 28H33.9999ZM55.9999 36L54.3199 33.76C53.5464 32.7286 53.3795 32.5363 53.2089 32.4068C53.0113 32.2569 52.7876 32.145 52.5492 32.0769C52.3432 32.0181 52.0892 32 50.7999 32H33.9999C33.5168 32 33.2212 32.0005 32.9971 32.0107C32.7965 32.0199 32.7402 32.0343 32.7404 32.0343C32.7404 32.0343 32.7407 32.0342 32.7411 32.0341C32.396 32.1266 32.1265 32.3961 32.034 32.7412C32.036 32.7338 32.0204 32.7839 32.0106 32.9973C32.0004 33.2213 31.9999 33.5169 31.9999 34C31.9999 34.4832 32.0004 34.7788 32.0106 35.0028C32.0204 35.2161 32.036 35.2663 32.034 35.2589C32.1265 35.604 32.396 35.8735 32.7411 35.966C32.7481 35.9677 32.8096 35.9808 32.9971 35.9893C33.1884 35.9981 33.4318 35.9997 33.7995 36H49.9999H55.9999ZM71.9999 57.3024V57.2859V57.2856V57.2V50.8V50.7143V50.7141V50.6975C71.9999 50.46 71.9999 50.2275 71.9998 50H67.9999C67.0407 50 66.4214 50.0011 65.9474 50.0334C65.4914 50.0645 65.3178 50.1178 65.2346 50.1522C64.7445 50.3552 64.3552 50.7446 64.1522 51.2346C64.1177 51.3178 64.0645 51.4915 64.0333 51.9475C64.001 52.4215 63.9999 53.0407 63.9999 54C63.9999 54.9592 64.001 55.5785 64.0333 56.0525C64.0645 56.5085 64.1177 56.6821 64.1522 56.7654C64.3552 57.2554 64.7445 57.6448 65.2346 57.8477C65.3178 57.8822 65.4914 57.9355 65.9474 57.9666C66.4214 57.9989 67.0407 58 67.9999 58H71.9998C71.9999 57.7724 71.9999 57.54 71.9999 57.3024Z" fill="#FF68C3"/>
</svg>
