<svg width="118" height="36" viewBox="0 0 118 36" fill="none" xmlns="http://www.w3.org/2000/svg">
<rect width="118" height="36" rx="16" fill="#43A1F7"/>
<rect width="118" height="36" rx="16" fill="url(#paint0_linear_1_2121)"/>
<path d="M17.5436 24.1591C16.6951 24.1591 15.9394 24.0133 15.2765 23.7216C14.6174 23.4261 14.0966 23.0208 13.714 22.5057C13.3352 21.9867 13.1402 21.3883 13.1288 20.7102H15.6061C15.6212 20.9943 15.714 21.2443 15.8845 21.4602C16.0587 21.6723 16.2898 21.8371 16.5777 21.9545C16.8655 22.072 17.1894 22.1307 17.5493 22.1307C17.9243 22.1307 18.2557 22.0644 18.5436 21.9318C18.8314 21.7992 19.0568 21.6155 19.2197 21.3807C19.3826 21.1458 19.464 20.875 19.464 20.5682C19.464 20.2576 19.3769 19.983 19.2027 19.7443C19.0322 19.5019 18.786 19.3125 18.464 19.1761C18.1458 19.0398 17.7671 18.9716 17.3277 18.9716H16.2424V17.1648H17.3277C17.6989 17.1648 18.0265 17.1004 18.3106 16.9716C18.5985 16.8428 18.822 16.6648 18.9811 16.4375C19.1402 16.2064 19.2197 15.9375 19.2197 15.6307C19.2197 15.339 19.1496 15.0833 19.0095 14.8636C18.8731 14.6402 18.6799 14.4659 18.4299 14.3409C18.1837 14.2159 17.8958 14.1534 17.5663 14.1534C17.233 14.1534 16.928 14.214 16.6515 14.3352C16.375 14.4527 16.1534 14.6212 15.9868 14.8409C15.8201 15.0606 15.7311 15.3182 15.7197 15.6136H13.3618C13.3731 14.9432 13.5644 14.3523 13.9356 13.8409C14.3068 13.3295 14.8068 12.9299 15.4356 12.642C16.0682 12.3504 16.7822 12.2045 17.5777 12.2045C18.3807 12.2045 19.0833 12.3504 19.6856 12.642C20.2879 12.9337 20.7557 13.3277 21.089 13.8239C21.4261 14.3163 21.5928 14.8693 21.589 15.483C21.5928 16.1345 21.3902 16.678 20.9811 17.1136C20.5758 17.5492 20.0474 17.8258 19.3958 17.9432V18.0341C20.2519 18.1439 20.9034 18.4413 21.3504 18.9261C21.8011 19.4072 22.0246 20.0095 22.0208 20.733C22.0246 21.3958 21.8333 21.9848 21.447 22.5C21.0644 23.0152 20.536 23.4205 19.8618 23.7159C19.1875 24.0114 18.4148 24.1591 17.5436 24.1591ZM28.0958 24.2557C27.1185 24.2519 26.2776 24.0114 25.5731 23.5341C24.8723 23.0568 24.3326 22.3655 23.9538 21.4602C23.5788 20.5549 23.3932 19.4659 23.3969 18.1932C23.3969 16.9242 23.5844 15.8428 23.9594 14.9489C24.3382 14.0549 24.878 13.375 25.5788 12.9091C26.2833 12.4394 27.1223 12.2045 28.0958 12.2045C29.0693 12.2045 29.9064 12.4394 30.6072 12.9091C31.3117 13.3788 31.8534 14.0606 32.2322 14.9545C32.611 15.8447 32.7985 16.9242 32.7947 18.1932C32.7947 19.4697 32.6053 20.5606 32.2265 21.4659C31.8515 22.3712 31.3136 23.0625 30.6129 23.5398C29.9121 24.017 29.0731 24.2557 28.0958 24.2557ZM28.0958 22.2159C28.7625 22.2159 29.2947 21.8807 29.6924 21.2102C30.0901 20.5398 30.2871 19.5341 30.2833 18.1932C30.2833 17.3106 30.1924 16.5758 30.0106 15.9886C29.8326 15.4015 29.5788 14.9602 29.2492 14.6648C28.9235 14.3693 28.539 14.2216 28.0958 14.2216C27.4329 14.2216 26.9026 14.553 26.5049 15.2159C26.1072 15.8788 25.9064 16.8712 25.9026 18.1932C25.9026 19.0871 25.9916 19.8333 26.1697 20.4318C26.3515 21.0265 26.6072 21.4735 26.9367 21.7727C27.2663 22.0682 27.6526 22.2159 28.0958 22.2159ZM40.6623 21.8182V21.2045C40.6623 20.7386 40.7607 20.3106 40.9577 19.9205C41.1585 19.5265 41.4482 19.2121 41.827 18.9773C42.2096 18.7386 42.6755 18.6193 43.2248 18.6193C43.7816 18.6193 44.2494 18.7367 44.6282 18.9716C45.0107 19.2064 45.2986 19.5208 45.4918 19.9148C45.6888 20.3049 45.7873 20.7348 45.7873 21.2045V21.8182C45.7873 22.2841 45.6888 22.714 45.4918 23.108C45.2948 23.4981 45.0051 23.8106 44.6225 24.0455C44.2399 24.2841 43.774 24.4034 43.2248 24.4034C42.6679 24.4034 42.2001 24.2841 41.8213 24.0455C41.4426 23.8106 41.1547 23.4981 40.9577 23.108C40.7607 22.714 40.6623 22.2841 40.6623 21.8182ZM42.3157 21.2045V21.8182C42.3157 22.0871 42.3801 22.3409 42.5088 22.5795C42.6414 22.8182 42.8801 22.9375 43.2248 22.9375C43.5694 22.9375 43.8043 22.8201 43.9293 22.5852C44.0581 22.3504 44.1225 22.0947 44.1225 21.8182V21.2045C44.1225 20.928 44.0619 20.6705 43.9407 20.4318C43.8194 20.1932 43.5808 20.0739 43.2248 20.0739C42.8838 20.0739 42.6471 20.1932 42.5145 20.4318C42.3819 20.6705 42.3157 20.928 42.3157 21.2045ZM34.6907 15.1591V14.5455C34.6907 14.0758 34.791 13.6458 34.9918 13.2557C35.1926 12.8617 35.4823 12.5473 35.8611 12.3125C36.2437 12.0777 36.7058 11.9602 37.2475 11.9602C37.8081 11.9602 38.2778 12.0777 38.6566 12.3125C39.0354 12.5473 39.3232 12.8617 39.5202 13.2557C39.7172 13.6458 39.8157 14.0758 39.8157 14.5455V15.1591C39.8157 15.6288 39.7153 16.0587 39.5145 16.4489C39.3176 16.839 39.0278 17.1515 38.6452 17.3864C38.2664 17.6174 37.8005 17.733 37.2475 17.733C36.6944 17.733 36.2266 17.6155 35.8441 17.3807C35.4653 17.142 35.1774 16.8295 34.9804 16.4432C34.7873 16.053 34.6907 15.625 34.6907 15.1591ZM36.3554 14.5455V15.1591C36.3554 15.4356 36.4198 15.6913 36.5486 15.9261C36.6812 16.161 36.9141 16.2784 37.2475 16.2784C37.596 16.2784 37.8327 16.161 37.9577 15.9261C38.0865 15.6913 38.1509 15.4356 38.1509 15.1591V14.5455C38.1509 14.2689 38.0903 14.0114 37.9691 13.7727C37.8479 13.5341 37.6073 13.4148 37.2475 13.4148C36.9104 13.4148 36.6774 13.536 36.5486 13.7784C36.4198 14.0208 36.3554 14.2765 36.3554 14.5455ZM35.4407 24L43.4407 12.3636H44.9293L36.9293 24H35.4407ZM53.3079 24H50.6716L54.6886 12.3636H57.8591L61.8704 24H59.2341L56.3193 15.0227H56.2284L53.3079 24ZM53.1432 19.4261H59.3704V21.3466H53.1432V19.4261ZM63.015 24V12.3636H67.6059C68.4885 12.3636 69.2404 12.5322 69.8616 12.8693C70.4828 13.2027 70.9563 13.6667 71.282 14.2614C71.6116 14.8523 71.7764 15.5341 71.7764 16.3068C71.7764 17.0795 71.6097 17.7614 71.2764 18.3523C70.943 18.9432 70.4601 19.4034 69.8275 19.733C69.1987 20.0625 68.4373 20.2273 67.5434 20.2273H64.6173V18.2557H67.1457C67.6192 18.2557 68.0093 18.1742 68.3161 18.0114C68.6267 17.8447 68.8578 17.6155 69.0093 17.3239C69.1646 17.0284 69.2423 16.6894 69.2423 16.3068C69.2423 15.9205 69.1646 15.5833 69.0093 15.2955C68.8578 15.0038 68.6267 14.7784 68.3161 14.6193C68.0055 14.4564 67.6116 14.375 67.1343 14.375H65.4752V24H63.015ZM72.4365 12.3636H75.1922L77.8456 17.375H77.9593L80.6127 12.3636H83.3684L79.124 19.8864V24H76.6809V19.8864L72.4365 12.3636Z" fill="white"/>
<path fill-rule="evenodd" clip-rule="evenodd" d="M97 10.5L97.323 9.82314C97.0907 9.71223 96.8176 9.72828 96.5999 9.86566C96.3821 10.003 96.25 10.2425 96.25 10.5C96.25 11.107 96.2799 11.7758 96.3094 12.4368L96.3094 12.437C96.3174 12.6153 96.3254 12.793 96.3327 12.9687C96.3678 13.8119 96.3894 14.621 96.3452 15.3282C96.2999 16.0525 96.1895 16.5776 96.0195 16.9014C95.9402 17.0525 95.862 17.1321 95.7966 17.1753C95.7367 17.2149 95.6494 17.25 95.5 17.25C95.2563 17.25 95.1152 17.1917 95.0196 17.1212C94.9169 17.0454 94.8017 16.9068 94.6964 16.6433C94.4735 16.0863 94.375 15.1844 94.375 13.875C94.375 13.5831 94.2057 13.3178 93.941 13.1948C93.6762 13.0718 93.3642 13.1136 93.1412 13.3019L93.625 13.875C93.1412 13.3019 93.141 13.3021 93.1408 13.3023L93.1402 13.3027L93.139 13.3037L93.1359 13.3064L93.1268 13.3143L93.0977 13.3398C93.0736 13.3611 93.0405 13.3911 92.9994 13.4296C92.9174 13.5064 92.8038 13.6172 92.6692 13.76C92.4004 14.045 92.0448 14.4608 91.6893 14.9918C90.9811 16.0495 90.25 17.5999 90.25 19.5C90.25 23.3261 93.2136 26.25 97 26.25C100.786 26.25 103.75 23.3261 103.75 19.5C103.75 16.1658 102.115 13.7353 100.527 12.1655C99.7326 11.3798 98.9398 10.799 98.3452 10.4138C98.0473 10.2209 97.7974 10.0759 97.6194 9.97796C97.5304 9.92896 97.4592 9.89165 97.4088 9.8659C97.3837 9.85303 97.3637 9.84304 97.3493 9.83592L97.3318 9.82738L97.3264 9.82473L97.3244 9.8238L97.3237 9.82344C97.3233 9.82328 97.323 9.82314 97 10.5Z" fill="white"/>
<defs>
<linearGradient id="paint0_linear_1_2121" x1="118" y1="1.58258e-05" x2="-2.6722" y2="16.7592" gradientUnits="userSpaceOnUse">
<stop stop-color="#577CFF"/>
<stop offset="1" stop-color="#4CBFFF"/>
</linearGradient>
</defs>
</svg>
