<svg width="78" height="78" viewBox="0 0 78 78" fill="none" xmlns="http://www.w3.org/2000/svg">
<rect x="3" y="3" width="72" height="72" rx="36" fill="white" fill-opacity="0.08"/>
<path d="M54.8746 33.871C55.5911 29.0802 51.9437 26.5049 46.9562 24.787L48.5742 18.2974L44.6238 17.3131L43.0487 23.6318C42.0102 23.3728 40.9436 23.1287 39.8836 22.8868L41.4701 16.5263L37.5222 15.542L35.9033 22.0295C35.0439 21.8338 34.1998 21.6404 33.3808 21.4366L33.3854 21.4162L27.9377 20.0558L26.8869 24.2751C26.8869 24.2751 29.8177 24.947 29.756 24.9883C31.3557 25.3876 31.645 26.4465 31.5969 27.2859L29.7539 34.679C29.864 34.707 30.0069 34.7475 30.1646 34.8108C30.0328 34.7781 29.8925 34.7424 29.747 34.7075L27.1637 45.0643C26.9682 45.5503 26.4719 46.2797 25.3535 46.0027C25.3931 46.0601 22.4823 45.2862 22.4823 45.2862L20.521 49.8081L25.6618 51.0897C26.6182 51.3295 27.5554 51.5804 28.4783 51.8164L26.8436 58.3804L30.7894 59.3648L32.4083 52.8704C33.4863 53.1631 34.5324 53.433 35.5565 53.6874L33.9431 60.1512L37.8936 61.1355L39.5282 54.5838C46.2645 55.8587 51.3296 55.3447 53.4616 49.2517C55.1795 44.3462 53.3761 41.5167 49.8321 39.6715C52.4134 39.0762 54.3576 37.3785 54.876 33.8715L54.8748 33.8706L54.8746 33.871ZM45.8488 46.5274C44.628 51.433 36.3686 48.7812 33.6907 48.1162L35.86 39.42C38.5377 40.0885 47.1247 41.4114 45.849 46.5274H45.8488ZM47.0705 33.7999C45.9569 38.262 39.0825 35.9951 36.8525 35.4392L38.8192 27.5523C41.0492 28.1082 48.2307 29.1456 47.0709 33.7999H47.0705Z" fill="white"/>
<rect x="1.5" y="1.5" width="75" height="75" rx="37.5" stroke="white" stroke-opacity="0.12" stroke-width="3"/>
</svg>
