<svg width="50" height="50" viewBox="0 0 50 50" fill="none" xmlns="http://www.w3.org/2000/svg">
<path fill-rule="evenodd" clip-rule="evenodd" d="M45.2564 4.90405C39.5644 -0.968017 30.3093 -0.968019 24.6173 4.90405L22.8406 6.73696C22.0718 7.53008 22.0916 8.79625 22.8847 9.56505C23.6778 10.3338 24.944 10.3141 25.7128 9.521L27.4895 7.6881C31.6099 3.4373 38.2638 3.4373 42.3843 7.6881C46.5386 11.9738 46.5386 18.9474 42.3843 23.2331L38.1475 27.6039C34.4045 31.4654 28.3624 31.4654 24.6194 27.6039L23.9361 26.8989C23.1673 26.1058 21.9011 26.0861 21.108 26.8549C20.3149 27.6237 20.2951 28.8899 21.0639 29.683L21.7473 30.3879C27.0619 35.8707 35.7051 35.8707 41.0197 30.388L45.2564 26.0172C50.9145 20.18 50.9145 10.7412 45.2564 4.90405ZM11.8525 22.3961C15.5955 18.5346 21.6376 18.5346 25.3806 22.3961L26.0639 23.1011C26.8327 23.8942 28.0989 23.9139 28.892 23.1451C29.6851 22.3763 29.7049 21.1101 28.9361 20.317L28.2527 19.612C22.9381 14.1293 14.2949 14.1293 8.98033 19.612L4.74359 23.9828C-0.914532 29.82 -0.914531 39.2588 4.74359 45.0959C10.4356 50.968 19.6907 50.968 25.3827 45.0959L27.1594 43.263C27.9282 42.4699 27.9084 41.2037 27.1153 40.435C26.3222 39.6662 25.056 39.6859 24.2872 40.479L22.5105 42.3119C18.3901 46.5627 11.7362 46.5627 7.61572 42.3119C3.46143 38.0262 3.46143 31.0526 7.61572 26.7669L11.8525 22.3961Z" fill="white"/>
</svg>
