<svg width="140" height="140" viewBox="0 0 140 140" fill="none" xmlns="http://www.w3.org/2000/svg">
<path fill-rule="evenodd" clip-rule="evenodd" d="M77.9012 4.90186C75.4406 4.03872 73.015 5.39869 70.287 8.00479C67.5252 10.6431 64.1653 14.8431 59.7545 20.3566L59.7108 20.4112L26.6783 61.7018L26.6334 61.758L26.6332 61.7582C23.286 65.9422 20.7202 69.1494 19.2044 71.7373C17.6867 74.3284 17.079 76.5353 18.0668 78.5907C19.0547 80.646 21.1577 81.5502 24.129 81.9837C27.0968 82.4167 31.2041 82.4167 36.5623 82.4167H36.5624H36.6344H46.3336C49.1832 82.4167 51.245 82.4183 52.8173 82.6296C54.368 82.8381 55.3298 83.2382 56.0459 83.9543C56.762 84.6705 57.1621 85.6323 57.3706 87.183C57.582 88.7553 57.5836 90.817 57.5836 93.6667V111.624V111.694V111.694C57.5836 118.755 57.5836 124.133 58.092 127.919C58.5942 131.658 59.6387 134.235 62.0993 135.098C64.5599 135.961 66.9854 134.601 69.7134 131.995C72.4753 129.357 75.8353 125.157 80.2463 119.643L80.2896 119.589L113.322 78.2982L113.367 78.2421L113.367 78.2417C116.715 74.0577 119.28 70.8506 120.796 68.2627C122.314 65.6716 122.921 63.4647 121.934 61.4093C120.946 59.354 118.843 58.4498 115.871 58.0163C112.904 57.5833 108.796 57.5833 103.438 57.5833H103.438H103.366H93.6669C90.8173 57.5833 88.7555 57.5817 87.1832 57.3703C85.6325 57.1619 84.6707 56.7617 83.9546 56.0456C83.2385 55.3295 82.8384 54.3677 82.6299 52.817C82.4185 51.2447 82.4169 49.183 82.4169 46.3333V28.3761V28.3065C82.4169 21.2456 82.4169 15.8669 81.9085 12.0814C81.4063 8.34217 80.3618 5.765 77.9012 4.90186Z" fill="url(#paint0_linear_1_814)"/>
<defs>
<linearGradient id="paint0_linear_1_814" x1="70.5891" y1="135.357" x2="134.967" y2="81.2716" gradientUnits="userSpaceOnUse">
<stop stop-color="#FFC657"/>
<stop offset="1" stop-color="#FFD977"/>
</linearGradient>
</defs>
</svg>
