<svg width="100" height="100" viewBox="0 0 100 100" fill="none" xmlns="http://www.w3.org/2000/svg">
<rect width="100" height="100" rx="50" fill="#CF68FF" fill-opacity="0.16"/>
<path fill-rule="evenodd" clip-rule="evenodd" d="M51.1064 26.5751C50.3752 26.4379 49.6249 26.4379 48.8936 26.5751C48.0603 26.7314 47.2936 27.1158 46.4233 27.5522L46.2434 27.6423L30.8299 35.349L30.7511 35.3884L30.7511 35.3884C29.8976 35.8151 29.1375 36.1951 28.5615 36.5519C27.9937 36.9036 27.2647 37.4285 26.858 38.2859C26.3435 39.3708 26.3435 40.6293 26.858 41.7141C27.2647 42.5715 27.9937 43.0965 28.5615 43.4481C29.1375 43.8049 29.8976 44.1849 30.7511 44.6117L30.8299 44.6511L46.2434 52.3578L46.4233 52.4479L46.4233 52.4479C47.2937 52.8843 48.0603 53.2687 48.8936 53.425C49.6249 53.5622 50.3752 53.5622 51.1064 53.425C51.9397 53.2687 52.7064 52.8843 53.5767 52.4479L53.5768 52.4479L53.7566 52.3578L69.1701 44.6511L69.249 44.6116C70.1025 44.1849 70.8626 43.8049 71.4386 43.4481C72.0063 43.0965 72.7354 42.5715 73.142 41.7141C73.6565 40.6293 73.6565 39.3708 73.142 38.2859C72.7354 37.4285 72.0063 36.9036 71.4386 36.5519C70.8626 36.1951 70.1025 35.8151 69.2489 35.3884L69.1701 35.349L53.7566 27.6423L53.5768 27.5522C52.7064 27.1158 51.9398 26.7314 51.1064 26.5751ZM30.8944 50.2112C29.9065 49.7172 28.7051 50.1177 28.2111 51.1056C27.7172 52.0936 28.1176 53.2949 29.1056 53.7889L47.6745 63.0733L47.7843 63.1286C48.1895 63.3328 48.6995 63.5898 49.2624 63.6954C49.7499 63.7868 50.2501 63.7868 50.7376 63.6954C51.3005 63.5898 51.8104 63.3328 52.2156 63.1286L52.2156 63.1286L52.2157 63.1286L52.2157 63.1286L52.3255 63.0733L70.8944 53.7889C71.8824 53.2949 72.2828 52.0936 71.7888 51.1056C71.2949 50.1177 70.0935 49.7172 69.1056 50.2112L50.5367 59.4956C50.256 59.636 50.114 59.7063 50.0084 59.7522L50 59.7558L49.9916 59.7522C49.886 59.7063 49.744 59.636 49.4633 59.4956L30.8944 50.2112ZM30.8944 60.2112C29.9065 59.7172 28.7051 60.1177 28.2111 61.1056C27.7172 62.0936 28.1176 63.2949 29.1056 63.7889L47.6745 73.0733L47.7843 73.1286C48.1895 73.3328 48.6995 73.5898 49.2624 73.6954C49.7499 73.7868 50.2501 73.7868 50.7376 73.6954C51.3005 73.5898 51.8105 73.3328 52.2157 73.1286L52.3255 73.0733L70.8944 63.7889C71.8824 63.2949 72.2828 62.0936 71.7888 61.1056C71.2949 60.1177 70.0935 59.7172 69.1056 60.2112L50.5367 69.4956C50.256 69.636 50.114 69.7063 50.0084 69.7522L50 69.7558L49.9916 69.7522C49.886 69.7063 49.744 69.636 49.4633 69.4956L30.8944 60.2112Z" fill="#CF68FF"/>
</svg>
