<svg width="100" height="100" viewBox="0 0 100 100" fill="none" xmlns="http://www.w3.org/2000/svg">
<rect width="100" height="100" rx="50" fill="#EA68FF" fill-opacity="0.16"/>
<path fill-rule="evenodd" clip-rule="evenodd" d="M56 28C54.8954 28 54 28.8954 54 30C54 31.1046 54.8954 32 56 32C59.3137 32 62 34.6863 62 38C62 41.3137 59.3137 44 56 44C54.8954 44 54 44.8954 54 46C54 47.1046 54.8954 48 56 48C61.5228 48 66 43.5228 66 38C66 32.4772 61.5228 28 56 28ZM62.4 56C64.1132 56 65.2777 56.0016 66.1779 56.0751C67.0548 56.1467 67.5032 56.2766 67.816 56.436C68.5686 56.8195 69.1805 57.4314 69.564 58.184C69.7234 58.4968 69.8533 58.9452 69.9249 59.8221C69.9984 60.7223 70 61.8868 70 63.6C70 64.7531 69.9984 65.4977 69.9521 66.0643C69.9078 66.6077 69.8324 66.8091 69.782 66.908C69.5903 67.2843 69.2843 67.5903 68.908 67.782C68.8091 67.8324 68.6077 67.9078 68.0643 67.9521C67.4977 67.9984 66.7531 68 65.6 68H60C58.8954 68 58 68.8954 58 70C58 71.1046 58.8954 72 60 72H65.6H65.677C66.7314 72 67.6409 72.0001 68.3901 71.9389C69.1807 71.8743 69.9672 71.7316 70.7239 71.346C71.8529 70.7708 72.7708 69.8529 73.346 68.7239C73.7316 67.9672 73.8743 67.1807 73.9389 66.3901C74.0001 65.6409 74 64.7314 74 63.6771V63.6V63.5174C74 61.9075 74 60.5787 73.9116 59.4963C73.8198 58.3722 73.6226 57.3387 73.1281 56.3681C72.3611 54.8628 71.1372 53.6389 69.6319 52.8719C68.6613 52.3774 67.6278 52.1802 66.5037 52.0884C65.4213 52 64.0925 52 62.4826 52H62.4H60C58.8954 52 58 52.8954 58 54C58 55.1046 58.8954 56 60 56H62.4ZM32 38C32 32.4772 36.4772 28 42 28C47.5228 28 52 32.4772 52 38C52 43.5228 47.5228 48 42 48C36.4772 48 32 43.5228 32 38ZM36 52C30.4772 52 26 56.4772 26 62C26 67.5228 30.4772 72 36 72H48C53.5228 72 58 67.5228 58 62C58 56.4772 53.5228 52 48 52H36Z" fill="#EA68FF"/>
</svg>
